{
	"asset":{
		"generator":"Khronos glTF Blender I/O v4.2.60",
		"version":"2.0"
	},
	"scene":0,
	"scenes":[
		{
			"name":"Scene",
			"nodes":[
				0,
				1,
				2,
				3,
				4,
				5,
				6
			]
		}
	],
	"nodes":[
		{
			"mesh":0,
			"name":"antenna1",
			"translation":[
				0,
				2.6377992630004883,
				-0.029795954003930092
			]
		},
		{
			"mesh":1,
			"name":"antenna2",
			"translation":[
				0,
				2.880586862564087,
				0.16258758306503296
			]
		},
		{
			"mesh":2,
			"name":"depth_planes",
			"translation":[
				0,
				1.707108736038208,
				-0.33724188804626465
			]
		},
		{
			"name":"fin_rotate_empty",
			"rotation":[
				0,
				0,
				0.7071066498756409,
				0.70710688829422
			]
		},
		{
			"mesh":3,
			"name":"fins"
		},
		{
			"mesh":4,
			"name":"hull"
		},
		{
			"mesh":5,
			"name":"screw",
			"rotation":[
				0,
				-1,
				0,
				1.6292068494294654e-07
			],
			"translation":[
				2.43029580815346e-06,
				0,
				6.730493545532227
			]
		}
	],
	"materials":[
		{
			"doubleSided":true,
			"name":"antennae.001",
			"pbrMetallicRoughness":{
				"baseColorFactor":[
					0.800000011920929,
					0.800000011920929,
					0.800000011920929,
					1
				],
				"metallicFactor":0,
				"roughnessFactor":0.5
			}
		},
		{
			"doubleSided":true,
			"name":"hull.001",
			"pbrMetallicRoughness":{
				"baseColorFactor":[
					0.05999999865889549,
					0.12999999523162842,
					0.17000000178813934,
					1
				],
				"metallicFactor":0,
				"roughnessFactor":0.9699476361274719
			}
		},
		{
			"doubleSided":true,
			"name":"screw.001",
			"pbrMetallicRoughness":{
				"baseColorFactor":[
					0.7200000286102295,
					0.4399999976158142,
					0.07000000029802322,
					1
				],
				"metallicFactor":0,
				"roughnessFactor":0.9699476361274719
			}
		}
	],
	"meshes":[
		{
			"name":"buffer-0-mesh-0.009",
			"primitives":[
				{
					"attributes":{
						"POSITION":0,
						"NORMAL":1,
						"TEXCOORD_0":2
					},
					"indices":3,
					"material":0
				}
			]
		},
		{
			"name":"buffer-0-mesh-0.008",
			"primitives":[
				{
					"attributes":{
						"POSITION":4,
						"NORMAL":5,
						"TEXCOORD_0":6
					},
					"indices":7,
					"material":0
				}
			]
		},
		{
			"name":"buffer-0-mesh-0.007",
			"primitives":[
				{
					"attributes":{
						"POSITION":8,
						"NORMAL":9,
						"TEXCOORD_0":10
					},
					"indices":11,
					"material":1
				}
			]
		},
		{
			"name":"buffer-0-mesh-0.006",
			"primitives":[
				{
					"attributes":{
						"POSITION":12,
						"NORMAL":13,
						"TEXCOORD_0":14
					},
					"indices":15,
					"material":1
				}
			]
		},
		{
			"name":"buffer-0-mesh-0.005",
			"primitives":[
				{
					"attributes":{
						"POSITION":16,
						"NORMAL":17,
						"TEXCOORD_0":18
					},
					"indices":19,
					"material":1
				}
			]
		},
		{
			"name":"Cylinder.001",
			"primitives":[
				{
					"attributes":{
						"POSITION":20,
						"NORMAL":21,
						"TEXCOORD_0":22
					},
					"indices":23,
					"material":2
				}
			]
		}
	],
	"accessors":[
		{
			"bufferView":0,
			"componentType":5126,
			"count":212,
			"max":[
				0.05129600688815117,
				0.41457676887512207,
				0.05129558593034744
			],
			"min":[
				-0.051295991986989975,
				-0.49681830406188965,
				-0.0512954518198967
			],
			"type":"VEC3"
		},
		{
			"bufferView":1,
			"componentType":5126,
			"count":212,
			"type":"VEC3"
		},
		{
			"bufferView":2,
			"componentType":5126,
			"count":212,
			"type":"VEC2"
		},
		{
			"bufferView":3,
			"componentType":5123,
			"count":360,
			"type":"SCALAR"
		},
		{
			"bufferView":4,
			"componentType":5126,
			"count":116,
			"max":[
				0.03112703002989292,
				0.3767871856689453,
				0.03112703561782837
			],
			"min":[
				-0.031126970425248146,
				-0.7466118335723877,
				-0.03112691640853882
			],
			"type":"VEC3"
		},
		{
			"bufferView":5,
			"componentType":5126,
			"count":116,
			"type":"VEC3"
		},
		{
			"bufferView":6,
			"componentType":5126,
			"count":116,
			"type":"VEC2"
		},
		{
			"bufferView":7,
			"componentType":5123,
			"count":168,
			"type":"SCALAR"
		},
		{
			"bufferView":8,
			"componentType":5126,
			"count":366,
			"max":[
				1.1381967067718506,
				0.0386122465133667,
				0.2639615535736084
			],
			"min":[
				-1.1381971836090088,
				-0.0386127233505249,
				-0.4110443592071533
			],
			"type":"VEC3"
		},
		{
			"bufferView":9,
			"componentType":5126,
			"count":366,
			"type":"VEC3"
		},
		{
			"bufferView":10,
			"componentType":5126,
			"count":366,
			"type":"VEC2"
		},
		{
			"bufferView":11,
			"componentType":5123,
			"count":420,
			"type":"SCALAR"
		},
		{
			"bufferView":12,
			"componentType":5126,
			"count":184,
			"max":[
				0.04559437558054924,
				1.1759493350982666,
				6.406954288482666
			],
			"min":[
				-0.04559367150068283,
				0.2290996015071869,
				5.061202049255371
			],
			"type":"VEC3"
		},
		{
			"bufferView":13,
			"componentType":5126,
			"count":184,
			"type":"VEC3"
		},
		{
			"bufferView":14,
			"componentType":5126,
			"count":184,
			"type":"VEC2"
		},
		{
			"bufferView":15,
			"componentType":5123,
			"count":210,
			"type":"SCALAR"
		},
		{
			"bufferView":16,
			"componentType":5126,
			"count":891,
			"max":[
				1.0220396518707275,
				2.157289981842041,
				6.682600975036621
			],
			"min":[
				-1.0220403671264648,
				-1.0220398902893066,
				-4.141650199890137
			],
			"type":"VEC3"
		},
		{
			"bufferView":17,
			"componentType":5126,
			"count":891,
			"type":"VEC3"
		},
		{
			"bufferView":18,
			"componentType":5126,
			"count":891,
			"type":"VEC2"
		},
		{
			"bufferView":19,
			"componentType":5123,
			"count":1296,
			"type":"SCALAR"
		},
		{
			"bufferView":20,
			"componentType":5126,
			"count":400,
			"max":[
				0.7015166282653809,
				0.7015169262886047,
				0.10771656036376953
			],
			"min":[
				-0.7015171051025391,
				-0.70151686668396,
				-0.15570926666259766
			],
			"type":"VEC3"
		},
		{
			"bufferView":21,
			"componentType":5126,
			"count":400,
			"type":"VEC3"
		},
		{
			"bufferView":22,
			"componentType":5126,
			"count":400,
			"type":"VEC2"
		},
		{
			"bufferView":23,
			"componentType":5123,
			"count":756,
			"type":"SCALAR"
		}
	],
	"bufferViews":[
		{
			"buffer":0,
			"byteLength":2544,
			"byteOffset":0,
			"target":34962
		},
		{
			"buffer":0,
			"byteLength":2544,
			"byteOffset":2544,
			"target":34962
		},
		{
			"buffer":0,
			"byteLength":1696,
			"byteOffset":5088,
			"target":34962
		},
		{
			"buffer":0,
			"byteLength":720,
			"byteOffset":6784,
			"target":34963
		},
		{
			"buffer":0,
			"byteLength":1392,
			"byteOffset":7504,
			"target":34962
		},
		{
			"buffer":0,
			"byteLength":1392,
			"byteOffset":8896,
			"target":34962
		},
		{
			"buffer":0,
			"byteLength":928,
			"byteOffset":10288,
			"target":34962
		},
		{
			"buffer":0,
			"byteLength":336,
			"byteOffset":11216,
			"target":34963
		},
		{
			"buffer":0,
			"byteLength":4392,
			"byteOffset":11552,
			"target":34962
		},
		{
			"buffer":0,
			"byteLength":4392,
			"byteOffset":15944,
			"target":34962
		},
		{
			"buffer":0,
			"byteLength":2928,
			"byteOffset":20336,
			"target":34962
		},
		{
			"buffer":0,
			"byteLength":840,
			"byteOffset":23264,
			"target":34963
		},
		{
			"buffer":0,
			"byteLength":2208,
			"byteOffset":24104,
			"target":34962
		},
		{
			"buffer":0,
			"byteLength":2208,
			"byteOffset":26312,
			"target":34962
		},
		{
			"buffer":0,
			"byteLength":1472,
			"byteOffset":28520,
			"target":34962
		},
		{
			"buffer":0,
			"byteLength":420,
			"byteOffset":29992,
			"target":34963
		},
		{
			"buffer":0,
			"byteLength":10692,
			"byteOffset":30412,
			"target":34962
		},
		{
			"buffer":0,
			"byteLength":10692,
			"byteOffset":41104,
			"target":34962
		},
		{
			"buffer":0,
			"byteLength":7128,
			"byteOffset":51796,
			"target":34962
		},
		{
			"buffer":0,
			"byteLength":2592,
			"byteOffset":58924,
			"target":34963
		},
		{
			"buffer":0,
			"byteLength":4800,
			"byteOffset":61516,
			"target":34962
		},
		{
			"buffer":0,
			"byteLength":4800,
			"byteOffset":66316,
			"target":34962
		},
		{
			"buffer":0,
			"byteLength":3200,
			"byteOffset":71116,
			"target":34962
		},
		{
			"buffer":0,
			"byteLength":1512,
			"byteOffset":74316,
			"target":34963
		}
	],
	"buffers":[
		{
			"byteLength":75828,
			"uri":"submarine.bin"
		}
	]
}
